<?xml version="1.0" encoding="UTF-8" standalone="no"?>
<svg
   xmlns:dc="http://purl.org/dc/elements/1.1/"
   xmlns:cc="http://creativecommons.org/ns#"
   xmlns:rdf="http://www.w3.org/1999/02/22-rdf-syntax-ns#"
   xmlns:svg="http://www.w3.org/2000/svg"
   xmlns="http://www.w3.org/2000/svg"
   xmlns:sodipodi="http://sodipodi.sourceforge.net/DTD/sodipodi-0.dtd"
   xmlns:inkscape="http://www.inkscape.org/namespaces/inkscape"
   id="svg8"
   version="1.1"
   viewBox="0 0 185.70834 185.48155"
   height="185.48155mm"
   width="185.70834mm"
   sodipodi:docname="pfd.svg"
   inkscape:version="0.92.4 (5da689c313, 2019-01-14)">
  <sodipodi:namedview
     pagecolor="#ffffff"
     bordercolor="#666666"
     borderopacity="1"
     objecttolerance="10"
     gridtolerance="10"
     guidetolerance="10"
     inkscape:pageopacity="0"
     inkscape:pageshadow="2"
     inkscape:window-width="1920"
     inkscape:window-height="1024"
     id="namedview885"
     showgrid="false"
     inkscape:zoom="0.84096521"
     inkscape:cx="127.52968"
     inkscape:cy="436.64297"
     inkscape:window-x="0"
     inkscape:window-y="0"
     inkscape:window-maximized="1"
     inkscape:current-layer="layer2"
     fit-margin-top="0"
     fit-margin-left="0"
     fit-margin-right="0"
     fit-margin-bottom="0"
     showguides="true"
     inkscape:guide-bbox="true"
     inkscape:snap-global="false">
    <sodipodi:guide
       position="81.64611,90.3224"
       orientation="0,1"
       id="guide847"
       inkscape:locked="false" />
    <sodipodi:guide
       position="87.986476,73.414759"
       orientation="1,0"
       id="guide849"
       inkscape:locked="false" />
  </sodipodi:namedview>
  <defs
     id="defs2" />
  <metadata
     id="metadata5">
    <rdf:RDF>
      <cc:Work
         rdf:about="">
        <dc:format>image/svg+xml</dc:format>
        <dc:type
           rdf:resource="http://purl.org/dc/dcmitype/StillImage" />
        <dc:title></dc:title>
      </cc:Work>
    </rdf:RDF>
  </metadata>
  <g
     id="layer2"
     transform="translate(-12.695682,-58.171432)">
    <path
       style="opacity:1;fill:#000000;fill-opacity:1;stroke:#000000;stroke-width:1.88976383;stroke-linecap:round;stroke-miterlimit:4;stroke-dasharray:none;stroke-dashoffset:0;stroke-opacity:1"
       d="M 78.087891 0.9453125 C 35.350744 0.9453125 0.9453125 35.350744 0.9453125 78.087891 L 0.9453125 622.94531 C 0.9453125 665.68246 35.350744 700.08789 78.087891 700.08789 L 623.80273 700.08789 C 666.53988 700.08789 700.94531 665.68246 700.94531 622.94531 L 700.94531 78.087891 C 700.94531 35.350744 666.53988 0.9453125 623.80273 0.9453125 L 78.087891 0.9453125 z M 334.66406 178.73047 A 180.00001 180.00001 0 0 1 489.1582 266.77344 L 489.1582 450.70312 A 180.00001 180.00001 0 0 1 334.66406 538.73047 A 180.00001 180.00001 0 0 1 177.01758 445.21094 L 177.01758 271.91406 A 180.00001 180.00001 0 0 1 334.66406 178.73047 z "
       transform="matrix(0.26458332,0,0,0.26458332,12.695682,58.171432)"
       id="rect947" />
    <rect
       rx="0"
       ry="0"
       y="105.55505"
       x="27.647617"
       height="95.061005"
       width="19.654762"
       id="rect949"
       style="opacity:1;fill:#666666;fill-opacity:1;stroke:#ffffff;stroke-width:0.5;stroke-linecap:round;stroke-miterlimit:4;stroke-dasharray:none;stroke-dashoffset:0;stroke-opacity:1" />
    <rect
       rx="0"
       ry="0"
       y="105.55505"
       x="148.66345"
       height="95.061012"
       width="19.654762"
       id="rect949-3"
       style="opacity:1;fill:#666666;fill-opacity:1;stroke:#ffffff;stroke-width:0.5;stroke-linecap:round;stroke-miterlimit:4;stroke-dasharray:none;stroke-dashoffset:0;stroke-opacity:1" />
    <rect
       rx="0"
       ry="0"
       y="217.34152"
       x="60.287193"
       height="11.717262"
       width="81.07589"
       id="rect949-3-6"
       style="opacity:1;fill:#666666;fill-opacity:1;stroke:#ffffff;stroke-width:0.49999997;stroke-linecap:round;stroke-miterlimit:4;stroke-dasharray:none;stroke-dashoffset:0;stroke-opacity:1" />
    <path
       id="path981"
       d="m 178.87723,113.11458 v 85.98958 l 8.12649,-18.14285 V 125.4933 l -5.57515,-12.47321 z"
       style="fill:#666666;fill-rule:evenodd;stroke:#ffffff;stroke-width:0.5;stroke-linecap:butt;stroke-linejoin:miter;stroke-miterlimit:4;stroke-dasharray:none;stroke-opacity:1"
       inkscape:connector-curvature="0" />
    <path
       inkscape:connector-curvature="0"
       style="opacity:1;fill:#000000;fill-opacity:1;stroke:#ffffff;stroke-width:0.5;stroke-linecap:round;stroke-miterlimit:4;stroke-dasharray:none;stroke-dashoffset:0;stroke-opacity:1"
       d="m -63.654232,110.13709 a 47.625,47.625 0 0 0 -41.710638,24.65483 v 45.85146 a 47.625,47.625 0 0 0 41.710638,24.74371 47.625,47.625 0 0 0 40.87657,-23.29057 v -48.66473 a 47.625,47.625 0 0 0 -40.87657,-23.2947 z"
       id="path945-3-3" />
    <g
       transform="translate(0.1642114,0.26691474)"
       style="display:inline"
       id="g2742">
      <path
         inkscape:connector-curvature="0"
         id="path2723"
         d="m 61.094302,152.05137 h 16.37928 v 7.4249 h -2.113455 v -5.31144 H 61.066494 Z"
         style="fill:#000000;fill-rule:evenodd;stroke:#ffff00;stroke-width:0.26458332px;stroke-linecap:butt;stroke-linejoin:miter;stroke-opacity:1" />
      <path
         inkscape:connector-curvature="0"
         id="path2723-7"
         d="m 139.82464,152.05137 h -16.37928 v 7.4249 h 2.11345 v -5.31144 h 14.29364 z"
         style="display:inline;fill:#000000;fill-rule:evenodd;stroke:#ffff00;stroke-width:0.26458332px;stroke-linecap:butt;stroke-linejoin:miter;stroke-opacity:1" />
    </g>
  </g>
</svg>
